<mxfile host="Electron" modified="2023-05-27T23:01:56.392Z" agent="Mozilla/5.0 (X11; Linux x86_64) AppleWebKit/537.36 (KHTML, like Gecko) draw.io/21.2.8 Chrome/112.0.5615.165 Electron/24.2.0 Safari/537.36" etag="gudlsNLiKKzDWCndQ2ue" version="21.2.8" type="device">
  <diagram name="PÃ¡gina-1" id="ehMl7fL5fGNitLPW_vix">
    <mxGraphModel dx="1370" dy="2044" grid="1" gridSize="10" guides="1" tooltips="1" connect="1" arrows="1" fold="1" page="1" pageScale="1" pageWidth="827" pageHeight="1169" math="0" shadow="0">
      <root>
        <mxCell id="0" />
        <mxCell id="1" parent="0" />
        <mxCell id="VzmAdLbCQ5cp6Rb4yttU-1" value="ASSET" style="swimlane;horizontal=0;whiteSpace=wrap;html=1;" vertex="1" parent="1">
          <mxGeometry x="780" y="-20" width="321" height="100" as="geometry" />
        </mxCell>
        <mxCell id="VzmAdLbCQ5cp6Rb4yttU-2" value="M1" style="rounded=0;whiteSpace=wrap;html=1;" vertex="1" parent="VzmAdLbCQ5cp6Rb4yttU-1">
          <mxGeometry x="40" y="20" width="120" height="60" as="geometry" />
        </mxCell>
        <mxCell id="VzmAdLbCQ5cp6Rb4yttU-3" value="M2" style="rounded=0;whiteSpace=wrap;html=1;" vertex="1" parent="VzmAdLbCQ5cp6Rb4yttU-1">
          <mxGeometry x="181" y="20" width="120" height="60" as="geometry" />
        </mxCell>
        <mxCell id="VzmAdLbCQ5cp6Rb4yttU-4" value="INTEGRATION" style="swimlane;horizontal=0;whiteSpace=wrap;html=1;" vertex="1" parent="1">
          <mxGeometry x="39" y="100" width="1061" height="100" as="geometry" />
        </mxCell>
        <mxCell id="VzmAdLbCQ5cp6Rb4yttU-5" value="MQTT BROKER" style="rounded=0;whiteSpace=wrap;html=1;" vertex="1" parent="VzmAdLbCQ5cp6Rb4yttU-4">
          <mxGeometry x="40" y="20" width="1000" height="60" as="geometry" />
        </mxCell>
        <mxCell id="VzmAdLbCQ5cp6Rb4yttU-7" value="COMMUNICATION&lt;span id=&quot;page223R_mcid18&quot; class=&quot;markedContent&quot;&gt;&lt;/span&gt;&lt;span id=&quot;page223R_mcid18&quot; class=&quot;markedContent&quot;&gt;&lt;/span&gt;&lt;span id=&quot;page223R_mcid18&quot; class=&quot;markedContent&quot;&gt;&lt;/span&gt;&lt;span id=&quot;page223R_mcid18&quot; class=&quot;markedContent&quot;&gt;&lt;/span&gt;" style="swimlane;horizontal=0;whiteSpace=wrap;html=1;" vertex="1" parent="1">
          <mxGeometry x="39" y="-160" width="1061" height="120" as="geometry" />
        </mxCell>
        <mxCell id="VzmAdLbCQ5cp6Rb4yttU-8" value="RABBIT MQ" style="rounded=0;whiteSpace=wrap;html=1;" vertex="1" parent="VzmAdLbCQ5cp6Rb4yttU-7">
          <mxGeometry x="38" y="30" width="1002" height="60" as="geometry" />
        </mxCell>
        <mxCell id="VzmAdLbCQ5cp6Rb4yttU-9" value="INFORMATION&lt;span id=&quot;page223R_mcid18&quot; class=&quot;markedContent&quot;&gt;&lt;/span&gt;&lt;span id=&quot;page223R_mcid18&quot; class=&quot;markedContent&quot;&gt;&lt;/span&gt;&lt;span id=&quot;page223R_mcid18&quot; class=&quot;markedContent&quot;&gt;&lt;/span&gt;&lt;span id=&quot;page223R_mcid18&quot; class=&quot;markedContent&quot;&gt;&lt;/span&gt;" style="swimlane;horizontal=0;whiteSpace=wrap;html=1;" vertex="1" parent="1">
          <mxGeometry x="440" y="-20" width="320" height="100" as="geometry" />
        </mxCell>
        <mxCell id="VzmAdLbCQ5cp6Rb4yttU-10" value="OEE" style="rounded=0;whiteSpace=wrap;html=1;" vertex="1" parent="VzmAdLbCQ5cp6Rb4yttU-9">
          <mxGeometry x="40" y="20" width="120" height="60" as="geometry" />
        </mxCell>
        <mxCell id="VzmAdLbCQ5cp6Rb4yttU-15" value="ENHANCER" style="rounded=0;whiteSpace=wrap;html=1;" vertex="1" parent="VzmAdLbCQ5cp6Rb4yttU-9">
          <mxGeometry x="180" y="20" width="120" height="60" as="geometry" />
        </mxCell>
        <mxCell id="VzmAdLbCQ5cp6Rb4yttU-11" value="FUNCTIONAL&lt;span id=&quot;page223R_mcid18&quot; class=&quot;markedContent&quot;&gt;&lt;/span&gt;&lt;span id=&quot;page223R_mcid18&quot; class=&quot;markedContent&quot;&gt;&lt;/span&gt;&lt;span id=&quot;page223R_mcid18&quot; class=&quot;markedContent&quot;&gt;&lt;/span&gt;&lt;span id=&quot;page223R_mcid18&quot; class=&quot;markedContent&quot;&gt;&lt;/span&gt;" style="swimlane;horizontal=0;whiteSpace=wrap;html=1;" vertex="1" parent="1">
          <mxGeometry x="240" y="-20" width="180" height="100" as="geometry" />
        </mxCell>
        <mxCell id="VzmAdLbCQ5cp6Rb4yttU-12" value="MES" style="rounded=0;whiteSpace=wrap;html=1;" vertex="1" parent="VzmAdLbCQ5cp6Rb4yttU-11">
          <mxGeometry x="40" y="20" width="120" height="60" as="geometry" />
        </mxCell>
        <mxCell id="VzmAdLbCQ5cp6Rb4yttU-13" value="BUSINESS&lt;span id=&quot;page223R_mcid18&quot; class=&quot;markedContent&quot;&gt;&lt;/span&gt;&lt;span id=&quot;page223R_mcid18&quot; class=&quot;markedContent&quot;&gt;&lt;/span&gt;&lt;span id=&quot;page223R_mcid18&quot; class=&quot;markedContent&quot;&gt;&lt;/span&gt;&lt;span id=&quot;page223R_mcid18&quot; class=&quot;markedContent&quot;&gt;&lt;/span&gt;" style="swimlane;horizontal=0;whiteSpace=wrap;html=1;" vertex="1" parent="1">
          <mxGeometry x="40" y="-20" width="181" height="100" as="geometry" />
        </mxCell>
        <mxCell id="VzmAdLbCQ5cp6Rb4yttU-14" value="ERP" style="rounded=0;whiteSpace=wrap;html=1;" vertex="1" parent="VzmAdLbCQ5cp6Rb4yttU-13">
          <mxGeometry x="41" y="20" width="120" height="60" as="geometry" />
        </mxCell>
      </root>
    </mxGraphModel>
  </diagram>
</mxfile>
